<svg width="17" height="19" viewBox="0 0 17 19" fill="none" xmlns="http://www.w3.org/2000/svg">
<path d="M8.54849 17.9634C8.09435 17.9634 7.66653 17.6984 7.36377 17.2366L6.37651 15.7225C6.35677 15.6922 6.27779 15.6543 6.24488 15.6468H5.91579C3.1712 15.6468 1.47311 14.7913 1.47311 10.5366V6.75128C1.47311 3.40507 3.00666 1.64111 5.91579 1.64111H11.1812C14.0903 1.64111 15.6239 3.40507 15.6239 6.75128V10.5366C15.6239 13.8828 14.0903 15.6468 11.1812 15.6468H10.8521C10.7994 15.6468 10.7534 15.677 10.7205 15.7225L9.7332 17.2366C9.43044 17.6984 9.00263 17.9634 8.54849 17.9634ZM5.91579 2.77671C3.55953 2.77671 2.46038 4.041 2.46038 6.75128V10.5366C2.46038 13.9585 3.48055 14.5112 5.91579 14.5112H6.24488C6.58055 14.5112 6.96229 14.7307 7.16632 15.0411L8.15358 16.5552C8.38394 16.9035 8.71303 16.9035 8.94339 16.5552L9.93065 15.0411C10.1478 14.708 10.4901 14.5112 10.8521 14.5112H11.1812C13.5374 14.5112 14.6366 13.2469 14.6366 10.5366V6.75128C14.6366 4.041 13.5374 2.77671 11.1812 2.77671H5.91579Z" fill="#787486"/>
<path d="M8.54848 9.77951C8.1799 9.77951 7.8903 9.43883 7.8903 9.02244C7.8903 8.60606 8.18648 8.26538 8.54848 8.26538C8.91047 8.26538 9.20665 8.60606 9.20665 9.02244C9.20665 9.43883 8.91706 9.77951 8.54848 9.77951Z" fill="#787486"/>
<path d="M11.1812 9.77951C10.8126 9.77951 10.523 9.43883 10.523 9.02244C10.523 8.60606 10.8192 8.26538 11.1812 8.26538C11.5432 8.26538 11.8394 8.60606 11.8394 9.02244C11.8394 9.43883 11.5498 9.77951 11.1812 9.77951Z" fill="#787486"/>
<path d="M5.91579 9.77951C5.54721 9.77951 5.25761 9.43883 5.25761 9.02244C5.25761 8.60606 5.55379 8.26538 5.91579 8.26538C6.27778 8.26538 6.57396 8.60606 6.57396 9.02244C6.57396 9.43883 6.28437 9.77951 5.91579 9.77951Z" fill="#787486"/>
</svg>
