<svg width="48" height="48" viewBox="0 0 48 48" fill="none" xmlns="http://www.w3.org/2000/svg">
<path opacity="0.6" d="M28 31.9999C28 35.5399 26.46 38.7399 24 40.9199C21.88 42.8399 19.08 43.9999 16 43.9999C9.38 43.9999 4 38.6199 4 31.9999C4 26.4799 7.76 21.7999 12.84 20.4199C14.22 23.8999 17.18 26.5799 20.84 27.5799C21.84 27.8599 22.9 27.9999 24 27.9999C25.1 27.9999 26.16 27.8599 27.16 27.5799C27.7 28.9399 28 30.4399 28 31.9999Z" fill="#32D583"/>
<path d="M36 16C36 17.56 35.7 19.06 35.16 20.42C33.78 23.9 30.82 26.58 27.16 27.58C26.16 27.86 25.1 28 24 28C22.9 28 21.84 27.86 20.84 27.58C17.18 26.58 14.22 23.9 12.84 20.42C12.3 19.06 12 17.56 12 16C12 9.38 17.38 4 24 4C30.62 4 36 9.38 36 16Z" fill="#12B76A"/>
<path opacity="0.4" d="M44 31.9999C44 38.6199 38.62 43.9999 32 43.9999C28.92 43.9999 26.12 42.8399 24 40.9199C26.46 38.7399 28 35.5399 28 31.9999C28 30.4399 27.7 28.9399 27.16 27.5799C30.82 26.5799 33.78 23.8999 35.16 20.4199C40.24 21.7999 44 26.4799 44 31.9999Z" fill="#6CE9A6"/>
</svg>
