<svg width="20" height="20" viewBox="0 0 20 20" fill="none" xmlns="http://www.w3.org/2000/svg">
<mask id="mask0_990_27716" style="mask-type:alpha" maskUnits="userSpaceOnUse" x="0" y="0" width="20" height="20">
<rect width="20" height="20" fill="#D9D9D9"/>
</mask>
<g mask="url(#mask0_990_27716)">
<path d="M5.5 16C5.08333 16 4.72933 15.854 4.438 15.562C4.146 15.2707 4 14.9167 4 14.5C4 14.0833 4.146 13.7293 4.438 13.438C4.72933 13.146 5.08333 13 5.5 13C5.91667 13 6.27067 13.146 6.562 13.438C6.854 13.7293 7 14.0833 7 14.5C7 14.9167 6.854 15.2707 6.562 15.562C6.27067 15.854 5.91667 16 5.5 16ZM10 16C9.58333 16 9.22933 15.854 8.938 15.562C8.646 15.2707 8.5 14.9167 8.5 14.5C8.5 14.0833 8.646 13.7293 8.938 13.438C9.22933 13.146 9.58333 13 10 13C10.4167 13 10.7707 13.146 11.062 13.438C11.354 13.7293 11.5 14.0833 11.5 14.5C11.5 14.9167 11.354 15.2707 11.062 15.562C10.7707 15.854 10.4167 16 10 16ZM14.5 16C14.0833 16 13.7293 15.854 13.438 15.562C13.146 15.2707 13 14.9167 13 14.5C13 14.0833 13.146 13.7293 13.438 13.438C13.7293 13.146 14.0833 13 14.5 13C14.9167 13 15.2707 13.146 15.562 13.438C15.854 13.7293 16 14.0833 16 14.5C16 14.9167 15.854 15.2707 15.562 15.562C15.2707 15.854 14.9167 16 14.5 16ZM5.5 11.5C5.08333 11.5 4.72933 11.354 4.438 11.062C4.146 10.7707 4 10.4167 4 10C4 9.58333 4.146 9.22933 4.438 8.938C4.72933 8.646 5.08333 8.5 5.5 8.5C5.91667 8.5 6.27067 8.646 6.562 8.938C6.854 9.22933 7 9.58333 7 10C7 10.4167 6.854 10.7707 6.562 11.062C6.27067 11.354 5.91667 11.5 5.5 11.5ZM10 11.5C9.58333 11.5 9.22933 11.354 8.938 11.062C8.646 10.7707 8.5 10.4167 8.5 10C8.5 9.58333 8.646 9.22933 8.938 8.938C9.22933 8.646 9.58333 8.5 10 8.5C10.4167 8.5 10.7707 8.646 11.062 8.938C11.354 9.22933 11.5 9.58333 11.5 10C11.5 10.4167 11.354 10.7707 11.062 11.062C10.7707 11.354 10.4167 11.5 10 11.5ZM14.5 11.5C14.0833 11.5 13.7293 11.354 13.438 11.062C13.146 10.7707 13 10.4167 13 10C13 9.58333 13.146 9.22933 13.438 8.938C13.7293 8.646 14.0833 8.5 14.5 8.5C14.9167 8.5 15.2707 8.646 15.562 8.938C15.854 9.22933 16 9.58333 16 10C16 10.4167 15.854 10.7707 15.562 11.062C15.2707 11.354 14.9167 11.5 14.5 11.5ZM5.5 7C5.08333 7 4.72933 6.854 4.438 6.562C4.146 6.27067 4 5.91667 4 5.5C4 5.08333 4.146 4.72933 4.438 4.438C4.72933 4.146 5.08333 4 5.5 4C5.91667 4 6.27067 4.146 6.562 4.438C6.854 4.72933 7 5.08333 7 5.5C7 5.91667 6.854 6.27067 6.562 6.562C6.27067 6.854 5.91667 7 5.5 7ZM10 7C9.58333 7 9.22933 6.854 8.938 6.562C8.646 6.27067 8.5 5.91667 8.5 5.5C8.5 5.08333 8.646 4.72933 8.938 4.438C9.22933 4.146 9.58333 4 10 4C10.4167 4 10.7707 4.146 11.062 4.438C11.354 4.72933 11.5 5.08333 11.5 5.5C11.5 5.91667 11.354 6.27067 11.062 6.562C10.7707 6.854 10.4167 7 10 7ZM14.5 7C14.0833 7 13.7293 6.854 13.438 6.562C13.146 6.27067 13 5.91667 13 5.5C13 5.08333 13.146 4.72933 13.438 4.438C13.7293 4.146 14.0833 4 14.5 4C14.9167 4 15.2707 4.146 15.562 4.438C15.854 4.72933 16 5.08333 16 5.5C16 5.91667 15.854 6.27067 15.562 6.562C15.2707 6.854 14.9167 7 14.5 7Z" fill="#1C1B1F"/>
</g>
</svg>
