<svg width="20" height="20" viewBox="0 0 20 20" fill="none" xmlns="http://www.w3.org/2000/svg">
<mask id="mask0_990_27766" style="mask-type:alpha" maskUnits="userSpaceOnUse" x="0" y="0" width="20" height="20">
<rect width="20" height="20" fill="#D9D9D9"/>
</mask>
<g mask="url(#mask0_990_27766)">
<path d="M12 18V16.5H15.5V9H4.5V12H3V5.5C3 5.09733 3.146 4.74667 3.438 4.448C3.72933 4.14933 4.08333 4 4.5 4H6V2H7.5V4H12.5V2H14V4H15.5C15.9027 4 16.2533 4.14933 16.552 4.448C16.8507 4.74667 17 5.09733 17 5.5V16.5C17 16.9027 16.8507 17.2533 16.552 17.552C16.2533 17.8507 15.9027 18 15.5 18H12ZM6.771 19.5L5.708 18.438L7.646 16.5H1.5V15H7.646L5.708 13.042L6.771 11.979L10.521 15.75L6.771 19.5Z" fill="#667085"/>
</g>
</svg>
