<svg width="20" height="20" viewBox="0 0 20 20" fill="none" xmlns="http://www.w3.org/2000/svg">
<mask id="mask0_990_27769" style="mask-type:alpha" maskUnits="userSpaceOnUse" x="0" y="0" width="20" height="20">
<rect width="20" height="20" fill="#D9D9D9"/>
</mask>
<g mask="url(#mask0_990_27769)">
<path d="M9.125 15.667L6.292 12.833L7.354 11.771L9.125 13.542L12.646 10L13.708 11.062L9.125 15.667ZM4.5 18C4.08333 18 3.72933 17.8507 3.438 17.552C3.146 17.2533 3 16.9027 3 16.5V5.5C3 5.09733 3.146 4.74667 3.438 4.448C3.72933 4.14933 4.08333 4 4.5 4H6V2H7.5V4H12.5V2H14V4H15.5C15.9167 4 16.2707 4.14933 16.562 4.448C16.854 4.74667 17 5.09733 17 5.5V16.5C17 16.9027 16.854 17.2533 16.562 17.552C16.2707 17.8507 15.9167 18 15.5 18H4.5ZM4.5 16.5H15.5V9H4.5V16.5Z" fill="#667085"/>
</g>
</svg>
