<svg width="20" height="20" viewBox="0 0 20 20" fill="none" xmlns="http://www.w3.org/2000/svg">
<mask id="mask0_988_27412" style="mask-type:alpha" maskUnits="userSpaceOnUse" x="0" y="0" width="20" height="20">
<rect width="20" height="20" fill="#D9D9D9"/>
</mask>
<g mask="url(#mask0_988_27412)">
<path d="M10 10C9.16667 10 8.45833 9.70833 7.875 9.125C7.29167 8.54167 7 7.83333 7 7C7 6.16667 7.29167 5.45833 7.875 4.875C8.45833 4.29167 9.16667 4 10 4C10.8333 4 11.5417 4.29167 12.125 4.875C12.7083 5.45833 13 6.16667 13 7C13 7.83333 12.7083 8.54167 12.125 9.125C11.5417 9.70833 10.8333 10 10 10ZM4 16V14C4 13.6807 4.08667 13.3787 4.26 13.094C4.434 12.8093 4.67367 12.5697 4.979 12.375C5.743 11.9303 6.552 11.59 7.406 11.354C8.26067 11.118 9.12533 11 10 11C10.8747 11 11.7393 11.118 12.594 11.354C13.448 11.59 14.257 11.9303 15.021 12.375C15.3263 12.5557 15.566 12.7917 15.74 13.083C15.9133 13.375 16 13.6807 16 14V16H4Z" fill="#667085"/>
</g>
</svg>
