<svg width="8" height="9" viewBox="0 0 8 9" fill="none" xmlns="http://www.w3.org/2000/svg">
<mask id="mask0_990_27753" style="mask-type:alpha" maskUnits="userSpaceOnUse" x="0" y="0" width="8" height="9">
<rect y="0.5" width="8" height="8" fill="#D9D9D9"/>
</mask>
<g mask="url(#mask0_990_27753)">
<path d="M1.73333 7.50019C1.52778 7.50019 1.35422 7.42941 1.21267 7.28786C1.07089 7.14608 1 6.97241 1 6.76686V2.20019C1 2.03908 1.075 1.92652 1.225 1.86252C1.375 1.79875 1.50556 1.82241 1.61667 1.93352L2.36667 2.68352L1.91667 3.13352L2.15 3.36686L2.6 2.91686L3.46667 3.78352L3.01667 4.23352L3.25 4.46686L3.7 4.01686L4.56667 4.88352L4.11667 5.33352L4.35 5.56686L4.8 5.11686L5.66667 5.98352L5.21667 6.43352L5.45 6.66686L5.9 6.21686L6.56667 6.88352C6.67778 6.99464 6.70144 7.12519 6.63767 7.27519C6.57367 7.42519 6.46111 7.50019 6.3 7.50019H1.73333ZM2 6.50019H4.76667L2 3.73352V6.50019Z" fill="#475467"/>
</g>
</svg>
