<svg width="20" height="20" viewBox="0 0 20 20" fill="none" xmlns="http://www.w3.org/2000/svg">
<mask id="mask0_988_27424" style="mask-type:alpha" maskUnits="userSpaceOnUse" x="0" y="0" width="20" height="20">
<rect width="20" height="20" fill="#D9D9D9"/>
</mask>
<g mask="url(#mask0_988_27424)">
<path d="M10 14C11.1113 14 12.0557 13.611 12.833 12.833C13.611 12.0557 14 11.1113 14 10C14 8.88867 13.611 7.94433 12.833 7.167C12.0557 6.389 11.1113 6 10 6C8.88867 6 7.94433 6.389 7.167 7.167C6.389 7.94433 6 8.88867 6 10C6 11.1113 6.389 12.0557 7.167 12.833C7.94433 13.611 8.88867 14 10 14ZM10 18C8.90267 18 7.868 17.7917 6.896 17.375C5.924 16.9583 5.07333 16.3853 4.344 15.656C3.61467 14.9267 3.04167 14.076 2.625 13.104C2.20833 12.132 2 11.0973 2 10C2 8.88867 2.20833 7.85033 2.625 6.885C3.04167 5.92033 3.61467 5.07333 4.344 4.344C5.07333 3.61467 5.924 3.04167 6.896 2.625C7.868 2.20833 8.90267 2 10 2C11.1113 2 12.1497 2.20833 13.115 2.625C14.0797 3.04167 14.9267 3.61467 15.656 4.344C16.3853 5.07333 16.9583 5.92033 17.375 6.885C17.7917 7.85033 18 8.88867 18 10C18 11.0973 17.7917 12.132 17.375 13.104C16.9583 14.076 16.3853 14.9267 15.656 15.656C14.9267 16.3853 14.0797 16.9583 13.115 17.375C12.1497 17.7917 11.1113 18 10 18Z" fill="#667085"/>
</g>
</svg>
