<svg width="30" height="18" viewBox="0 0 30 18" fill="none" xmlns="http://www.w3.org/2000/svg">
<path d="M5.00668 11.9835L5.03196 10.2949H5.03227C5.03227 9.41732 5.23692 8.79965 5.5738 8.37023C5.8634 8.0011 6.34429 7.75764 7.17221 7.75764C7.83363 7.75764 8.74797 7.95777 9.94283 8.41132L10.7619 8.72224L10.8736 7.93113C11.1322 8.75274 11.6339 9.42485 12.3998 9.90415L12.4061 9.9081L12.4126 9.91192C12.5516 9.99489 12.6952 10.0722 12.8431 10.1438L10.4392 13.4577L10.0032 14.0587L10.6287 14.4585C11.9823 15.3239 13.4267 15.9738 14.9603 16.407L14.9602 16.4071L14.9696 16.4096C16.5083 16.8214 18.0275 17.029 19.5256 17.029C22.1136 17.029 24.2308 16.6064 25.8118 15.6919L25.8118 15.6919L25.8173 15.6887C27.4924 14.6996 28.3105 13.0964 28.3105 11.02C28.3105 9.55988 27.7197 8.39907 26.5217 7.65442C26.1779 7.44073 25.7975 7.26331 25.3828 7.11991L27.9571 4.4915L28.5215 3.91519L27.8714 3.43758C26.7403 2.60654 25.4433 1.99342 23.9889 1.59298C22.566 1.17936 21.1458 0.970898 19.7303 0.970898C16.9341 0.970898 14.7053 1.39778 13.1312 2.33738C12.4225 2.75267 11.8592 3.25545 11.4508 3.84121L11.7031 2.0536L11.8001 1.36643L11.1138 1.26351C10.6168 1.18899 10.1045 1.15218 9.57721 1.15218C8.04754 1.15218 6.73263 1.5029 5.69082 2.2648C5.22285 2.60703 4.8241 3.02191 4.49135 3.50325L4.14875 1.79243L4.03054 1.20213L3.4292 1.23066C2.3419 1.28225 1.49318 1.30757 0.878282 1.30757C0.29761 1.30757 -0.551007 1.28227 -1.67364 1.23062L-2.44661 1.19505L-2.40479 1.96772C-2.26892 4.47756 -2.20113 6.83017 -2.20113 9.02587C-2.20113 11.2215 -2.26892 13.5567 -2.40476 16.0317L-2.44528 16.7701H-1.70581H4.40902H5.14154L5.1083 16.0383C5.04055 14.5467 5.00678 13.1953 5.00668 11.9835ZM21.6118 6.59835C21.6715 6.61284 21.7316 6.62819 21.7921 6.6444C21.1639 6.6537 20.2959 6.69741 19.1958 6.77368L19.1847 6.77445L19.1737 6.77556C18.6705 6.8265 18.2968 6.8497 18.0417 6.8497C17.9 6.8497 17.8184 6.82361 17.7706 6.79788C17.7701 6.79334 17.7697 6.78762 17.7695 6.78061C17.7718 6.77659 17.776 6.76993 17.7835 6.7602C17.8151 6.7192 17.8916 6.64519 18.0543 6.553C18.3547 6.38268 18.7419 6.28147 19.2442 6.28147C20.0348 6.28147 20.8181 6.3854 21.5955 6.59418L21.6037 6.59637L21.6118 6.59835ZM17.7673 6.7854C17.7672 6.78544 17.7674 6.78478 17.7681 6.78337C17.7677 6.78466 17.7674 6.78536 17.7673 6.7854ZM19.3977 11.2782C18.7014 11.2782 17.843 11.1462 16.812 10.8633C17.6584 10.8525 18.4859 10.8001 19.2943 10.7059C19.4518 10.6901 19.6617 10.6736 19.9269 10.6569C20.2063 10.6402 20.4473 10.6323 20.6513 10.6323C20.9156 10.6323 21.0293 10.6902 21.0724 10.7229C21.0835 10.7314 21.0887 10.7371 21.0906 10.7394C21.0914 10.7404 21.092 10.7412 21.0925 10.7419C21.0929 10.7426 21.0932 10.7431 21.0934 10.7437C21.0937 10.7443 21.1027 10.7622 21.1027 10.8128C21.1027 10.8294 21.1013 10.8407 21.0823 10.866C21.0563 10.9008 20.9906 10.9665 20.8421 11.0453C20.5749 11.179 20.1158 11.2782 19.3977 11.2782Z" stroke="#909296" stroke-width="1.4"/>
</svg>
